<svg width="13" height="6" viewBox="0 0 13 6" fill="none" xmlns="http://www.w3.org/2000/svg">
<path d="M10.5277 0.205185C10.6193 0.129938 10.7248 0.0734683 10.8382 0.0390014C10.9516 0.00453451 11.0707 -0.00725506 11.1887 0.00430583C11.3067 0.0158667 11.4212 0.0505517 11.5258 0.10638C11.6304 0.162209 11.7229 0.238088 11.7982 0.329685C11.8734 0.421282 11.9299 0.526803 11.9644 0.640224C11.9988 0.753644 12.0106 0.872743 11.9991 0.99072C11.9875 1.1087 11.9528 1.22324 11.897 1.32781C11.8412 1.43239 11.7653 1.52494 11.6737 1.60019L6.70168 5.69418C6.50297 5.84915 6.25818 5.93331 6.00619 5.93331C5.75419 5.93331 5.5094 5.84915 5.31069 5.69418L0.329685 1.60019C0.144697 1.44822 0.0276541 1.22898 0.00430583 0.99072C-0.0190424 0.752455 0.053216 0.514673 0.205185 0.329685C0.357154 0.144697 0.576385 0.0276541 0.81465 0.00430583C1.05292 -0.0190424 1.2907 0.053216 1.47569 0.205185L6.00169 3.93119L10.5277 0.205185Z" fill="#040E28"/>
</svg>
