<svg width="6" height="13" viewBox="0 0 6 13" fill="none" xmlns="http://www.w3.org/2000/svg">
<path d="M0.205185 1.47569C0.053216 1.2907 -0.0190424 1.05292 0.00430583 0.81465C0.0276541 0.576385 0.144697 0.357154 0.329685 0.205185C0.514673 0.053216 0.752455 -0.0190424 0.99072 0.00430583C1.22898 0.0276541 1.44822 0.144697 1.60019 0.329685L5.69418 5.30169C5.84915 5.5004 5.93331 5.74519 5.93331 5.99719C5.93331 6.24918 5.84915 6.49397 5.69418 6.69269L1.60019 11.6737C1.52494 11.7653 1.43239 11.8412 1.32781 11.897C1.22324 11.9528 1.1087 11.9875 0.99072 11.9991C0.872743 12.0106 0.753644 11.9988 0.640224 11.9644C0.526803 11.9299 0.421282 11.8734 0.329685 11.7982C0.238088 11.7229 0.162209 11.6304 0.10638 11.5258C0.0505517 11.4212 0.0158667 11.3067 0.00430583 11.1887C-0.00725506 11.0707 0.00453451 10.9516 0.0390014 10.8382C0.0734683 10.7248 0.129938 10.6193 0.205185 10.5277L3.93119 6.00169L0.205185 1.47569Z" fill="#646D82"/>
</svg>
