<svg width="12" height="6" viewBox="0 0 12 6" fill="none" xmlns="http://www.w3.org/2000/svg">
<path d="M10.5261 5.73065C10.6175 5.8059 10.7229 5.86241 10.8361 5.89695C10.9493 5.93149 11.0683 5.94339 11.1861 5.93197C11.304 5.92055 11.4184 5.88603 11.5229 5.83038C11.6274 5.77474 11.7199 5.69905 11.7951 5.60765C11.8704 5.51625 11.9269 5.41093 11.9614 5.29769C11.996 5.18445 12.0079 5.06552 11.9965 4.94768C11.985 4.82984 11.9505 4.71541 11.8949 4.61091C11.8392 4.50641 11.7635 4.4139 11.6721 4.33865L6.70014 0.242653C6.50066 0.0854722 6.2541 0 6.00014 0C5.74618 0 5.49961 0.0854722 5.30014 0.242653L0.328138 4.33965C0.14368 4.49162 0.0271461 4.71064 0.00417286 4.94853C-0.00720232 5.06632 0.00473457 5.1852 0.039302 5.29838C0.0738694 5.41156 0.13039 5.51682 0.205638 5.60815C0.280885 5.69949 0.373385 5.77511 0.477857 5.83069C0.582329 5.88628 0.696726 5.92074 0.814517 5.93212C1.05241 5.95509 1.28968 5.88262 1.47414 5.73065L6.00014 2.00365L10.5261 5.73065Z" fill="#646D82"/>
</svg>
