<svg width="6" height="12" viewBox="0 0 6 12" fill="none" xmlns="http://www.w3.org/2000/svg">
<path d="M5.69085 1.47414C5.7661 1.3828 5.82262 1.27754 5.85719 1.16436C5.89176 1.05119 5.90369 0.932308 5.89232 0.814517C5.88094 0.696726 5.84648 0.582329 5.79089 0.477857C5.73531 0.373385 5.65969 0.280885 5.56835 0.205638C5.47702 0.13039 5.37176 0.0738694 5.25858 0.039302C5.1454 0.00473457 5.02652 -0.00720232 4.90873 0.00417286C4.79094 0.015548 4.67654 0.0500125 4.57207 0.105599C4.4676 0.161185 4.3751 0.236803 4.29985 0.328138L0.259852 5.23514C0.0913452 5.45456 0 5.72348 0 6.00014C0 6.2768 0.0913452 6.54572 0.259852 6.76514L4.29985 11.6721C4.3751 11.7635 4.46761 11.8392 4.57211 11.8949C4.67661 11.9505 4.79104 11.985 4.90888 11.9965C5.02671 12.0079 5.14565 11.996 5.25889 11.9614C5.37213 11.9269 5.47745 11.8704 5.56885 11.7951C5.66025 11.7199 5.73594 11.6274 5.79158 11.5229C5.84723 11.4184 5.88175 11.304 5.89317 11.1861C5.90459 11.0683 5.89269 10.9493 5.85815 10.8361C5.82361 10.7229 5.7671 10.6175 5.69185 10.5261L1.96485 6.00014L5.69085 1.47414Z" fill="#646D82"/>
</svg>
