<svg width="18" height="18" viewBox="0 0 18 18" fill="none" xmlns="http://www.w3.org/2000/svg">
<path d="M9 18C7.21997 18 5.47991 17.4722 3.99987 16.4832C2.51983 15.4943 1.36628 14.0887 0.685088 12.4442C0.00389957 10.7996 -0.17433 8.99002 0.172937 7.24419C0.520203 5.49836 1.37737 3.89472 2.63604 2.63604C3.89472 1.37737 5.49836 0.520203 7.24419 0.172937C8.99002 -0.17433 10.7996 0.00389957 12.4442 0.685088C14.0887 1.36628 15.4943 2.51983 16.4832 3.99987C17.4722 5.47991 18 7.21997 18 9C17.9974 11.3861 17.0483 13.6738 15.361 15.361C13.6738 17.0483 11.3861 17.9974 9 18ZM4.652 9.292C4.49736 9.29196 4.34602 9.33674 4.2163 9.42093C4.08658 9.50511 3.98404 9.62508 3.92108 9.76633C3.85813 9.90758 3.83746 10.064 3.86159 10.2168C3.88571 10.3695 3.95359 10.512 4.057 10.627L6 12.784C6.07914 12.8719 6.17484 12.9434 6.28162 12.9943C6.38841 13.0452 6.50418 13.0746 6.62232 13.0807C6.74046 13.0868 6.85865 13.0696 6.97013 13.03C7.08161 12.9904 7.18419 12.9293 7.272 12.85L13.885 6.896C14.0428 6.75398 14.1377 6.55509 14.1489 6.34308C14.16 6.13107 14.0865 5.92331 13.9445 5.7655C13.8025 5.6077 13.6036 5.51278 13.3916 5.50162C13.1796 5.49046 12.9718 5.56398 12.814 5.706L6.719 11.192L5.247 9.557C5.17131 9.47313 5.0787 9.40623 4.97529 9.36073C4.87187 9.31522 4.75999 9.29214 4.647 9.293L4.652 9.292Z" fill="#22CE8B"/>
</svg>
