<svg width="20" height="20" viewBox="0 0 20 20" fill="none" xmlns="http://www.w3.org/2000/svg">
<path d="M11.0385 19.5H8.24351C7.91957 19.4988 7.60676 19.3817 7.3617 19.1698C7.11664 18.958 6.95552 18.6654 6.90751 18.345L6.64151 16.524C6.08093 16.2933 5.55039 15.9954 5.06151 15.637L3.19551 16.357C2.89943 16.4715 2.57247 16.4779 2.27213 16.3751C1.9718 16.2723 1.71734 16.0669 1.55351 15.795L0.195508 13.543C0.0217934 13.2569 -0.0391117 12.9164 0.0246758 12.5878C0.0884633 12.2593 0.272367 11.9663 0.540508 11.766L2.05651 10.627C2.01841 10.3359 1.99837 10.0426 1.99651 9.749C1.99814 9.46035 2.01818 9.1721 2.05651 8.886L0.540508 7.747C0.272815 7.5466 0.0892302 7.2538 0.025464 6.92554C-0.0383022 6.59728 0.022309 6.25704 0.195508 5.971L1.55351 3.72C1.67428 3.52117 1.84411 3.3567 2.0467 3.24235C2.2493 3.12801 2.47787 3.06763 2.71051 3.067C2.87675 3.06695 3.04155 3.0978 3.19651 3.158L5.06251 3.878C5.55346 3.52306 6.08361 3.22577 6.64251 2.992L6.91051 1.156C6.95869 0.835626 7.11983 0.543034 7.36483 0.331047C7.60982 0.11906 7.92253 0.00164495 8.24651 0L11.0405 0C11.3644 0.00119962 11.6773 0.118329 11.9223 0.330188C12.1674 0.542047 12.3285 0.834636 12.3765 1.155L12.6425 2.977C13.2031 3.20773 13.7336 3.50557 14.2225 3.864L16.0885 3.144C16.2435 3.0838 16.4083 3.05295 16.5745 3.053C16.8069 3.05369 17.0352 3.114 17.2376 3.22816C17.44 3.34232 17.6097 3.5065 17.7305 3.705L19.0875 5.957C19.2612 6.24307 19.3221 6.58361 19.2583 6.91216C19.1946 7.24071 19.0106 7.53371 18.7425 7.734L17.2285 8.873C17.2666 9.16382 17.2866 9.45671 17.2885 9.75C17.2875 10.039 17.2675 10.3276 17.2285 10.614L18.7445 11.753C19.0126 11.9533 19.1966 12.2463 19.2603 12.5748C19.3241 12.9034 19.2632 13.2439 19.0895 13.53L17.7315 15.781C17.6108 15.9797 17.4412 16.1441 17.2388 16.2584C17.0363 16.3727 16.808 16.4332 16.5755 16.434C16.4093 16.4341 16.2445 16.4032 16.0895 16.343L14.2235 15.623C13.7326 15.9783 13.2025 16.2759 12.6435 16.51L12.3745 18.346C12.3263 18.6662 12.1651 18.9585 11.92 19.1702C11.675 19.3818 11.3623 19.4988 11.0385 19.5ZM5.29251 13.939L5.89251 14.389C6.31754 14.7055 6.78172 14.9656 7.27351 15.163L8.00151 15.454L8.06351 15.881L8.11351 16.221L8.37351 18H10.9075L11.2825 15.448L12.0015 15.154C12.4959 14.9539 12.9632 14.6925 13.3925 14.376L13.9925 13.925L14.3795 14.074L14.6965 14.196L16.5145 14.896L17.7365 12.868L15.6195 11.28L15.7315 10.494C15.7689 10.2477 15.7886 9.99909 15.7905 9.75C15.7875 9.49399 15.7678 9.23844 15.7315 8.985L15.6235 8.2L15.9755 7.936L16.2565 7.725L17.7345 6.613L16.5115 4.588L13.9895 5.561L13.3895 5.111C12.965 4.79353 12.5007 4.53298 12.0085 4.336L11.2855 4.046L11.2225 3.619L11.1735 3.279L10.9115 1.5H8.37651L8.00151 4.053L7.28751 4.346C6.79469 4.54656 6.32904 4.80827 5.90151 5.125L5.30151 5.575L4.91551 5.427L4.59051 5.3L2.77251 4.6L1.55051 6.629L3.66551 8.22L3.55351 9.007C3.51606 9.25293 3.49635 9.50124 3.49451 9.75C3.49747 10.0063 3.51718 10.2622 3.55351 10.516L3.65951 11.297L3.30751 11.562L3.02651 11.774L1.55051 12.884L2.77251 14.912L5.29251 13.939ZM18.9675 12.685L19.1795 12.81L18.1525 12.177L18.1375 12.202L19.1175 12.78L18.9665 12.686L18.9675 12.685ZM9.64251 12.9C9.02094 12.8935 8.4152 12.7032 7.90154 12.3532C7.38789 12.0031 6.98929 11.5089 6.75592 10.9328C6.52256 10.3566 6.46487 9.72434 6.59011 9.11549C6.71536 8.50664 7.01794 7.94845 7.45976 7.51121C7.90158 7.07397 8.46289 6.77722 9.07301 6.65833C9.68313 6.53944 10.3148 6.60371 10.8885 6.84307C11.4621 7.08242 11.9522 7.48616 12.2968 8.00343C12.6415 8.52071 12.8255 9.1284 12.8255 9.75C12.8202 10.5895 12.4821 11.3927 11.8854 11.9832C11.2887 12.5737 10.482 12.9035 9.64251 12.9ZM9.64251 8.1C9.31765 8.1065 9.00195 8.20877 8.73498 8.39397C8.46802 8.57918 8.26168 8.83909 8.14184 9.1411C8.022 9.44312 7.99399 9.77379 8.06134 10.0917C8.12868 10.4095 8.28837 10.7004 8.52039 10.9279C8.75241 11.1554 9.04642 11.3093 9.36555 11.3703C9.68469 11.4313 10.0147 11.3968 10.3143 11.271C10.6139 11.1452 10.8697 10.9337 11.0496 10.6632C11.2294 10.3926 11.3254 10.0749 11.3255 9.75C11.3208 9.30814 11.1409 8.88621 10.8253 8.57686C10.5098 8.2675 10.0844 8.096 9.64251 8.1Z" fill="#646D82"/>
</svg>
