<svg width="16" height="12" viewBox="0 0 16 12" fill="none" xmlns="http://www.w3.org/2000/svg">
<path d="M12.5452 1.63636H2.72705V1.09091C2.72705 0.801582 2.84199 0.524105 3.04657 0.31952C3.25116 0.114935 3.52863 0 3.81796 0H14.1816C14.4709 0 14.7484 0.114935 14.953 0.31952C15.1576 0.524105 15.2725 0.801582 15.2725 1.09091V8.72727C15.2725 9.0166 15.1576 9.29408 14.953 9.49866C14.7484 9.70325 14.4709 9.81818 14.1816 9.81818H13.6361V2.72727C13.6361 2.43795 13.5212 2.16047 13.3166 1.95588C13.112 1.7513 12.8346 1.63636 12.5452 1.63636Z" fill="#646D82"/>
<path d="M11.4545 2.72729H1.09091C0.801582 2.72729 0.524105 2.84223 0.31952 3.04681C0.114935 3.2514 0 3.52888 0 3.8182V10.9091C0 11.1984 0.114935 11.4759 0.31952 11.6805C0.524105 11.8851 0.801582 12 1.09091 12H11.4545C11.7439 12 12.0213 11.8851 12.2259 11.6805C12.4305 11.4759 12.5455 11.1984 12.5455 10.9091V3.8182C12.5455 3.52888 12.4305 3.2514 12.2259 3.04681C12.0213 2.84223 11.7439 2.72729 11.4545 2.72729ZM8.18182 8.18184H6.54545V9.8182C6.54545 9.96287 6.48799 10.1016 6.38569 10.2039C6.2834 10.3062 6.14466 10.3637 6 10.3637C5.85534 10.3637 5.7166 10.3062 5.61431 10.2039C5.51201 10.1016 5.45455 9.96287 5.45455 9.8182V8.18184H3.81818C3.67352 8.18184 3.53478 8.12437 3.43249 8.02208C3.33019 7.91979 3.27273 7.78105 3.27273 7.63639C3.27273 7.49172 3.33019 7.35298 3.43249 7.25069C3.53478 7.1484 3.67352 7.09093 3.81818 7.09093H5.45455V5.45457C5.45455 5.3099 5.51201 5.17117 5.61431 5.06887C5.7166 4.96658 5.85534 4.90911 6 4.90911C6.14466 4.90911 6.2834 4.96658 6.38569 5.06887C6.48799 5.17117 6.54545 5.3099 6.54545 5.45457V7.09093H8.18182C8.32648 7.09093 8.46522 7.1484 8.56751 7.25069C8.66981 7.35298 8.72727 7.49172 8.72727 7.63639C8.72727 7.78105 8.66981 7.91979 8.56751 8.02208C8.46522 8.12437 8.32648 8.18184 8.18182 8.18184Z" fill="#646D82"/>
</svg>
