<svg width="13" height="13" viewBox="0 0 13 13" fill="none" xmlns="http://www.w3.org/2000/svg">
<path d="M2.332 13H0.492C0.361513 13 0.236371 12.9482 0.144103 12.8559C0.0518356 12.7636 0 12.6385 0 12.508V10.668C0.0182671 10.3539 0.143146 10.0555 0.354 9.822L7.766 2.41L10.59 5.234L3.178 12.646C2.94469 12.8571 2.64615 12.9821 2.332 13ZM11.3 4.528L8.472 1.7L9.885 0.292C9.97659 0.199484 10.0856 0.126043 10.2058 0.075923C10.3259 0.0258027 10.4548 -2.2656e-06 10.585 1.49192e-10C10.7181 0.000329895 10.8498 0.0270096 10.9725 0.0784998C11.0952 0.12999 11.2065 0.205271 11.3 0.3L12.7 1.7C12.7949 1.79353 12.8703 1.90498 12.9218 2.0279C12.9733 2.15081 12.9999 2.28273 13 2.416C12.9999 2.54618 12.9741 2.67506 12.924 2.7952C12.8739 2.91534 12.8005 3.02437 12.708 3.116L11.3 4.527V4.528Z" fill="#646D82"/>
</svg>
