<svg width="4" height="18" viewBox="0 0 4 18" fill="none" xmlns="http://www.w3.org/2000/svg">
<path d="M4 2C4 2.39556 3.8827 2.78224 3.66294 3.11114C3.44318 3.44004 3.13082 3.69638 2.76537 3.84776C2.39992 3.99913 1.99778 4.03874 1.60982 3.96157C1.22186 3.8844 0.865492 3.69392 0.585787 3.41421C0.306082 3.13451 0.115601 2.77814 0.0384303 2.39018C-0.0387401 2.00222 0.000866562 1.60008 0.152242 1.23463C0.303617 0.869181 0.559962 0.556824 0.88886 0.337061C1.21776 0.117298 1.60444 0 2 0C2.53043 0 3.03914 0.210714 3.41421 0.585787C3.78929 0.960859 4 1.46957 4 2ZM4 9C4 9.39556 3.8827 9.78224 3.66294 10.1111C3.44318 10.44 3.13082 10.6964 2.76537 10.8478C2.39992 10.9991 1.99778 11.0387 1.60982 10.9616C1.22186 10.8844 0.865492 10.6939 0.585787 10.4142C0.306082 10.1345 0.115601 9.77814 0.0384303 9.39018C-0.0387401 9.00222 0.000866562 8.60008 0.152242 8.23463C0.303617 7.86918 0.559962 7.55682 0.88886 7.33706C1.21776 7.1173 1.60444 7 2 7C2.53043 7 3.03914 7.21071 3.41421 7.58579C3.78929 7.96086 4 8.46957 4 9ZM4 16C4 16.3956 3.8827 16.7822 3.66294 17.1111C3.44318 17.44 3.13082 17.6964 2.76537 17.8478C2.39992 17.9991 1.99778 18.0387 1.60982 17.9616C1.22186 17.8844 0.865492 17.6939 0.585787 17.4142C0.306082 17.1345 0.115601 16.7781 0.0384303 16.3902C-0.0387401 16.0022 0.000866562 15.6001 0.152242 15.2346C0.303617 14.8692 0.559962 14.5568 0.88886 14.3371C1.21776 14.1173 1.60444 14 2 14C2.53043 14 3.03914 14.2107 3.41421 14.5858C3.78929 14.9609 4 15.4696 4 16Z" fill="#646D82"/>
</svg>
