<svg width="18" height="4" viewBox="0 0 18 4" fill="none" xmlns="http://www.w3.org/2000/svg">
<path d="M16 4C15.6044 4 15.2178 3.8827 14.8889 3.66294C14.56 3.44318 14.3036 3.13082 14.1522 2.76537C14.0009 2.39992 13.9613 1.99778 14.0384 1.60982C14.1156 1.22186 14.3061 0.865492 14.5858 0.585787C14.8655 0.306082 15.2219 0.115601 15.6098 0.0384303C15.9978 -0.0387401 16.3999 0.000866562 16.7654 0.152242C17.1308 0.303617 17.4432 0.559962 17.6629 0.88886C17.8827 1.21776 18 1.60444 18 2C18 2.53043 17.7893 3.03914 17.4142 3.41421C17.0391 3.78929 16.5304 4 16 4ZM9 4C8.60444 4 8.21776 3.8827 7.88886 3.66294C7.55996 3.44318 7.30362 3.13082 7.15224 2.76537C7.00087 2.39992 6.96126 1.99778 7.03843 1.60982C7.1156 1.22186 7.30608 0.865492 7.58579 0.585787C7.86549 0.306082 8.22186 0.115601 8.60982 0.0384303C8.99778 -0.0387401 9.39992 0.000866562 9.76537 0.152242C10.1308 0.303617 10.4432 0.559962 10.6629 0.88886C10.8827 1.21776 11 1.60444 11 2C11 2.53043 10.7893 3.03914 10.4142 3.41421C10.0391 3.78929 9.53043 4 9 4ZM2 4C1.60444 4 1.21776 3.8827 0.88886 3.66294C0.559962 3.44318 0.303617 3.13082 0.152242 2.76537C0.000866562 2.39992 -0.0387401 1.99778 0.0384303 1.60982C0.115601 1.22186 0.306082 0.865492 0.585787 0.585787C0.865492 0.306082 1.22186 0.115601 1.60982 0.0384303C1.99778 -0.0387401 2.39992 0.000866562 2.76537 0.152242C3.13082 0.303617 3.44318 0.559962 3.66294 0.88886C3.8827 1.21776 4 1.60444 4 2C4 2.53043 3.78929 3.03914 3.41421 3.41421C3.03914 3.78929 2.53043 4 2 4Z" fill="#0071BC"/>
</svg>
