<svg width="18" height="18" viewBox="0 0 18 18" fill="none" xmlns="http://www.w3.org/2000/svg">
<path d="M9.00008 18.0001C7.22004 18.0001 5.47997 17.4722 3.99991 16.4833C2.51985 15.4944 1.36629 14.0888 0.685093 12.4442C0.00389749 10.7997 -0.174333 8.99006 0.172941 7.24422C0.520214 5.49838 1.37739 3.89473 2.63608 2.63605C4.32392 0.948217 6.61312 0 9.00008 0C11.387 0 13.6762 0.948217 15.3641 2.63605C17.0519 4.32389 18.0001 6.61309 18.0001 9.00006C18.0001 11.387 17.0519 13.6762 15.3641 15.3641C14.5303 16.2024 13.5385 16.867 12.4461 17.3194C11.3537 17.7719 10.1825 18.0032 9.00008 18.0001ZM5.46308 4.46606C5.26613 4.46767 5.07404 4.5274 4.91091 4.63776C4.74778 4.74813 4.62088 4.9042 4.54611 5.08642C4.47135 5.26863 4.45205 5.46887 4.49065 5.662C4.52925 5.85514 4.62402 6.03258 4.76308 6.17206L7.58608 9.00006L4.75908 11.8271C4.66357 11.9193 4.58739 12.0296 4.53498 12.1517C4.48257 12.2737 4.45499 12.4049 4.45383 12.5377C4.45268 12.6704 4.47798 12.8021 4.52826 12.925C4.57854 13.0479 4.65279 13.1596 4.74669 13.2535C4.84058 13.3473 4.95223 13.4216 5.07513 13.4719C5.19802 13.5222 5.3297 13.5475 5.46248 13.5463C5.59526 13.5452 5.72648 13.5176 5.84849 13.4652C5.97049 13.4127 6.08083 13.3366 6.17308 13.2411L9.00008 10.4141L11.8271 13.2411C11.9193 13.3366 12.0297 13.4127 12.1517 13.4652C12.2737 13.5176 12.4049 13.5452 12.5377 13.5463C12.6705 13.5475 12.8021 13.5222 12.925 13.4719C13.0479 13.4216 13.1596 13.3473 13.2535 13.2535C13.3474 13.1596 13.4216 13.0479 13.4719 12.925C13.5222 12.8021 13.5475 12.6704 13.5463 12.5377C13.5452 12.4049 13.5176 12.2737 13.4652 12.1517C13.4128 12.0296 13.3366 11.9193 13.2411 11.8271L10.4141 9.00006L13.2411 6.17306C13.3366 6.08081 13.4128 5.97046 13.4652 5.84846C13.5176 5.72646 13.5452 5.59524 13.5463 5.46246C13.5475 5.32968 13.5222 5.198 13.4719 5.0751C13.4216 4.95221 13.3474 4.84055 13.2535 4.74666C13.1596 4.65277 13.0479 4.57851 12.925 4.52823C12.8021 4.47795 12.6705 4.45265 12.5377 4.4538C12.4049 4.45496 12.2737 4.48254 12.1517 4.53495C12.0297 4.58736 11.9193 4.66355 11.8271 4.75906L9.00008 7.58606L6.17308 4.75906C6.07989 4.66583 5.96918 4.59195 5.84733 4.54167C5.72549 4.49139 5.5949 4.46569 5.46308 4.46606Z" fill="#DCE1EA"/>
</svg>
