<svg width="20" height="14" viewBox="0 0 20 14" fill="none" xmlns="http://www.w3.org/2000/svg">
<path d="M10 13.6344C7.81379 13.6385 5.67914 12.9707 3.885 11.7214C2.13263 10.507 0.780452 8.7995 0 6.81545C0.789289 4.80634 2.16546 3.08156 3.94917 1.86588C5.73288 0.650205 7.84141 0 10 0C12.1586 0 14.2671 0.650205 16.0508 1.86588C17.8345 3.08156 19.2107 4.80634 20 6.81545C19.2197 8.79959 17.8675 10.5072 16.115 11.7214C14.321 12.9709 12.1862 13.6387 10 13.6344ZM10 2.27045C9.10117 2.27064 8.22258 2.53735 7.47531 3.03683C6.72804 3.53632 6.14565 4.24616 5.80178 5.07661C5.4579 5.90706 5.36798 6.82083 5.54338 7.70238C5.71878 8.58393 6.15163 9.39368 6.7872 10.0292C7.42277 10.6648 8.23252 11.0977 9.11407 11.2731C9.99562 11.4485 10.9094 11.3585 11.7398 11.0147C12.5703 10.6708 13.2801 10.0884 13.7796 9.34114C14.2791 8.59387 14.5458 7.71528 14.546 6.81645C14.5447 5.61118 14.0653 4.45565 13.213 3.6034C12.3608 2.75115 11.2053 2.27177 10 2.27045ZM10 9.54345C9.46065 9.54345 8.93341 9.38351 8.48496 9.08386C8.03651 8.78422 7.68698 8.35832 7.48058 7.86002C7.27418 7.36173 7.22018 6.81342 7.3254 6.28443C7.43062 5.75545 7.69034 5.26954 8.07172 4.88817C8.4531 4.50679 8.939 4.24707 9.46799 4.14184C9.99697 4.03662 10.5453 4.09063 11.0436 4.29703C11.5419 4.50343 11.9678 4.85295 12.2674 5.30141C12.5671 5.74986 12.727 6.2771 12.727 6.81645C12.7259 7.53927 12.4383 8.23218 11.9271 8.7432C11.4158 9.25423 10.7228 9.54165 10 9.54245V9.54345Z" fill="#0071BC"/>
</svg>
