<svg width="18" height="18" viewBox="0 0 18 18" fill="none" xmlns="http://www.w3.org/2000/svg">
<path d="M9 18C7.21997 18 5.47991 17.4722 3.99987 16.4832C2.51983 15.4943 1.36628 14.0887 0.685088 12.4442C0.00389957 10.7996 -0.17433 8.99002 0.172937 7.24419C0.520203 5.49836 1.37737 3.89472 2.63604 2.63604C3.89472 1.37737 5.49836 0.520203 7.24419 0.172937C8.99002 -0.17433 10.7996 0.00389957 12.4442 0.685088C14.0887 1.36628 15.4943 2.51983 16.4832 3.99987C17.4722 5.47991 18 7.21997 18 9C17.9974 11.3861 17.0483 13.6738 15.361 15.361C13.6738 17.0483 11.3861 17.9974 9 18ZM8.989 7C8.85305 6.9895 8.71646 7.00921 8.58903 7.05773C8.46159 7.10625 8.34648 7.18238 8.25194 7.28064C8.1574 7.37891 8.08579 7.49688 8.04223 7.62609C7.99867 7.75531 7.98425 7.89256 8 8.028V12.953C7.99095 13.0941 8.01056 13.2357 8.05765 13.369C8.10474 13.5024 8.17833 13.6248 8.274 13.729C8.36891 13.8198 8.48112 13.8906 8.60395 13.9372C8.72679 13.9838 8.85774 14.0051 8.989 14C9.25585 14.0088 9.51571 13.9138 9.714 13.735C9.81399 13.6321 9.89115 13.5093 9.94043 13.3745C9.98972 13.2398 10.01 13.0961 10 12.953V7.978C10.0071 7.84471 9.98526 7.71145 9.93607 7.58736C9.88688 7.46327 9.81147 7.35126 9.715 7.259C9.51469 7.08358 9.25512 6.99097 8.989 7ZM9.011 4C8.74882 3.99778 8.49577 4.09621 8.304 4.275C8.20587 4.36266 8.12815 4.47076 8.07631 4.59171C8.02448 4.71265 7.9998 4.84349 8.004 4.975C7.99683 5.11057 8.02005 5.24602 8.07195 5.37146C8.12386 5.49689 8.20314 5.60915 8.304 5.7C8.50199 5.8711 8.7564 5.96267 9.018 5.957C9.2758 5.96183 9.52587 5.86895 9.718 5.697C9.81484 5.60431 9.89026 5.49158 9.93897 5.36669C9.98768 5.24181 10.0085 5.10778 10 4.974C10.0086 4.83828 9.98599 4.7024 9.934 4.57675C9.882 4.45109 9.80196 4.33899 9.7 4.249C9.50754 4.08621 9.26307 3.99786 9.011 4Z" fill="#DCE1EA"/>
</svg>
