<svg width="18" height="16" viewBox="0 0 18 16" fill="none" xmlns="http://www.w3.org/2000/svg">
<path d="M8.98197 16.0001L8.34597 15.4881C4.55197 12.4301 2.26097 10.7921 0.956967 8.38708C0.499644 7.64182 0.19788 6.81171 0.0698456 5.94675C-0.0581888 5.08179 -0.00984459 4.19986 0.211967 3.35408C0.406749 2.72303 0.730902 2.13951 1.16375 1.64071C1.5966 1.14192 2.12865 0.738804 2.72597 0.457076C3.3619 0.152307 4.05878 -0.00396114 4.76397 7.62883e-05C5.60135 -0.000304408 6.4256 0.208172 7.16211 0.606632C7.89861 1.00509 8.52411 1.58095 8.98197 2.28208C9.43996 1.58108 10.0655 1.00532 10.802 0.606873C11.5384 0.20843 12.3626 -0.000124331 13.2 7.62883e-05C13.9047 -0.0039126 14.6012 0.151999 15.237 0.456076C15.8347 0.738175 16.367 1.14175 16.8 1.64107C17.2331 2.14039 17.5573 2.72447 17.752 3.35608C17.9735 4.20189 18.0218 5.08377 17.8937 5.9487C17.7657 6.81363 17.4641 7.64373 17.007 8.38908C15.702 10.7951 13.407 12.4361 9.60697 15.4891L8.98197 16.0001Z" fill="#F46363"/>
</svg>
