<svg width="18" height="16" viewBox="0 0 18 16" fill="none" xmlns="http://www.w3.org/2000/svg">
<path d="M16.4223 1.96866C16.8075 2.41281 17.0965 2.93192 17.271 3.49324C17.4732 4.27064 17.5168 5.08082 17.3991 5.87549C17.281 6.67372 17.0026 7.43981 16.5807 8.12768L16.5738 8.13901L16.5675 8.15069C15.9526 9.28434 15.0978 10.2522 13.9078 11.3251C13.0005 12.1431 11.9181 13.0055 10.615 14.0436C10.1977 14.376 9.75783 14.7265 9.29381 15.0993L9.2938 15.0993L9.29048 15.102L8.97953 15.3562L8.65974 15.0988C8.65968 15.0987 8.65962 15.0987 8.65956 15.0986C8.65954 15.0986 8.65953 15.0986 8.65951 15.0986C8.1847 14.7159 7.7352 14.3568 7.30939 14.0166C6.02222 12.9883 4.95156 12.133 4.05277 11.3216C2.86456 10.2489 2.01094 9.28195 1.39651 8.14875L1.39013 8.13698L1.38313 8.12557C0.961092 7.43781 0.682612 6.67176 0.564456 5.87354C0.446829 5.07888 0.49052 4.26871 0.692879 3.49137C0.867505 2.93062 1.1564 2.41206 1.54139 1.96842C1.9287 1.5221 2.40478 1.16139 2.93926 0.909299L2.93927 0.909308L2.94206 0.907971C3.50967 0.635944 4.13168 0.496464 4.7611 0.500078L4.76419 0.500076C5.51842 0.499733 6.26082 0.687507 6.92419 1.0464C7.58755 1.40529 8.15094 1.92396 8.56333 2.55546L8.98187 3.19638L9.40055 2.55555C9.81308 1.92414 10.3765 1.40553 11.0399 1.04664C11.7032 0.687748 12.4456 0.499896 13.1998 0.500085L13.2028 0.500068C13.8319 0.496507 14.4537 0.63569 15.0212 0.907147L15.0236 0.908244C15.5584 1.16069 16.0348 1.52184 16.4223 1.96866Z" stroke="#A6B1C2"/>
</svg>
