<svg width="20" height="14" viewBox="0 0 20 14" fill="none" xmlns="http://www.w3.org/2000/svg">
<path d="M1.5 14C1.10218 14 0.720644 13.842 0.43934 13.5607C0.158035 13.2794 0 12.8978 0 12.5L0 1.5C0 1.10218 0.158035 0.720644 0.43934 0.43934C0.720644 0.158035 1.10218 0 1.5 0L18.5 0C18.8978 0 19.2794 0.158035 19.5607 0.43934C19.842 0.720644 20 1.10218 20 1.5V12.5C20 12.8978 19.842 13.2794 19.5607 13.5607C19.2794 13.842 18.8978 14 18.5 14H1.5ZM1.5 12.5H18.5V3.146L10.99 7.408C10.7086 7.60478 10.3749 7.71304 10.0315 7.71892C9.68822 7.7248 9.35097 7.62803 9.063 7.441L1.5 3.146V12.5ZM9.859 6.171C9.91142 6.20212 9.97244 6.21561 10.0331 6.20949C10.0938 6.20337 10.1509 6.17797 10.196 6.137L18.362 1.5H1.638L9.859 6.171Z" fill="#DCE1EA"/>
</svg>
