<svg width="21" height="17" viewBox="0 0 21 17" fill="none" xmlns="http://www.w3.org/2000/svg">
<path d="M0.802 16.135C0.681823 16.1352 0.56314 16.1084 0.454766 16.0564C0.346391 16.0045 0.25111 15.9288 0.176 15.835C0.062639 15.6929 0.000616569 15.5167 0 15.335V1C-2.62979e-07 0.868512 0.0259316 0.738312 0.0763113 0.616856C0.126691 0.4954 0.200529 0.385072 0.2936 0.292187C0.386671 0.199302 0.497146 0.125685 0.618702 0.0755477C0.740259 0.0254107 0.87051 -0.00026098 1.002 2.00018e-06H19.002C19.2672 2.00018e-06 19.5216 0.105359 19.7091 0.292895C19.8966 0.480432 20.002 0.734786 20.002 1V12C20.002 12.2652 19.8966 12.5196 19.7091 12.7071C19.5216 12.8946 19.2672 13 19.002 13H5.352C5.12472 13.0002 4.90428 13.0778 4.727 13.22L1.302 15.961C1.15991 16.0741 0.983584 16.1354 0.802 16.135ZM1.502 1.5V13.879L3.791 12.047C4.23466 11.6937 4.78484 11.5009 5.352 11.5H18.502V1.5H1.502ZM15.251 8.5H4.752C4.55309 8.5 4.36232 8.42098 4.22167 8.28033C4.08102 8.13968 4.002 7.94891 4.002 7.75C4.002 7.55109 4.08102 7.36032 4.22167 7.21967C4.36232 7.07902 4.55309 7 4.752 7H15.252C15.4509 7 15.6417 7.07902 15.7823 7.21967C15.923 7.36032 16.002 7.55109 16.002 7.75C16.002 7.94891 15.923 8.13968 15.7823 8.28033C15.6417 8.42098 15.4509 8.5 15.252 8.5H15.251ZM15.251 5.5H4.752C4.55309 5.5 4.36232 5.42098 4.22167 5.28033C4.08102 5.13968 4.002 4.94891 4.002 4.75C4.002 4.55109 4.08102 4.36032 4.22167 4.21967C4.36232 4.07902 4.55309 4 4.752 4H15.252C15.4509 4 15.6417 4.07902 15.7823 4.21967C15.923 4.36032 16.002 4.55109 16.002 4.75C16.002 4.94891 15.923 5.13968 15.7823 5.28033C15.6417 5.42098 15.4509 5.5 15.252 5.5H15.251Z" fill="#A6B1C2"/>
</svg>
