<svg width="18" height="18" viewBox="0 0 18 18" fill="none" xmlns="http://www.w3.org/2000/svg">
<path d="M8.74841 17.8165C8.31818 17.8158 7.89563 17.7024 7.52282 17.4876C7.15001 17.2729 6.83992 16.9643 6.62341 16.5925C6.55711 16.4785 6.52205 16.349 6.52177 16.2171C6.52149 16.0852 6.55601 15.9555 6.62183 15.8412C6.68766 15.7269 6.78246 15.632 6.89669 15.566C7.01091 15.5001 7.14051 15.4654 7.27241 15.4655H10.2244C10.3563 15.4654 10.4859 15.5001 10.6001 15.566C10.7144 15.632 10.8092 15.7269 10.875 15.8412C10.9408 15.9555 10.9753 16.0852 10.975 16.2171C10.9748 16.349 10.9397 16.4785 10.8734 16.5925C10.6569 16.9643 10.3468 17.2729 9.974 17.4876C9.60119 17.7024 9.17864 17.8158 8.74841 17.8165ZM16.7484 14.2995H0.74841C0.603075 14.2992 0.460961 14.2567 0.339347 14.1771C0.217734 14.0975 0.12186 13.9843 0.0633852 13.8513C0.00491004 13.7182 -0.0136478 13.571 0.00996832 13.4276C0.0335844 13.2842 0.0983571 13.1508 0.19641 13.0435C1.39641 11.7365 2.02641 10.6575 2.02641 9.9235V6.7235C2.02641 4.94032 2.73478 3.23017 3.99568 1.96927C5.25658 0.708367 6.96673 0 8.74991 0C10.5331 0 12.2432 0.708367 13.5041 1.96927C14.765 3.23017 15.4734 4.94032 15.4734 6.7235V9.9235C15.4734 10.6585 16.1064 11.7375 17.3034 13.0435C17.4015 13.1508 17.4663 13.2844 17.4899 13.4279C17.5135 13.5714 17.4948 13.7186 17.4362 13.8517C17.3776 13.9848 17.2816 14.098 17.1598 14.1775C17.0381 14.257 16.8958 14.2994 16.7504 14.2995H16.7484ZM8.74841 1.4995C7.3635 1.50082 6.03567 2.0515 5.0563 3.03068C4.07692 4.00987 3.526 5.33759 3.52441 6.7225V9.9225C3.44242 10.982 3.02847 11.9888 2.34141 12.7995H15.1544C14.4674 11.9891 14.0534 10.9827 13.9714 9.9235V6.7235C13.9701 5.33859 13.4194 4.01076 12.4402 3.03139C11.461 2.05201 10.1333 1.50109 8.74841 1.4995Z" fill="#646D82"/>
</svg>
