<svg width="18" height="18" viewBox="0 0 18 18" fill="none" xmlns="http://www.w3.org/2000/svg">
<path d="M9 18C7.21997 18 5.47991 17.4722 3.99987 16.4832C2.51983 15.4943 1.36628 14.0887 0.685088 12.4442C0.00389957 10.7996 -0.17433 8.99002 0.172937 7.24419C0.520203 5.49836 1.37737 3.89472 2.63604 2.63604C3.89472 1.37737 5.49836 0.520203 7.24419 0.172937C8.99002 -0.17433 10.7996 0.00389957 12.4442 0.685088C14.0887 1.36628 15.4943 2.51983 16.4832 3.99987C17.4722 5.47991 18 7.21997 18 9C17.9974 11.3861 17.0483 13.6738 15.361 15.361C13.6738 17.0483 11.3861 17.9974 9 18ZM4.995 8C4.72979 8 4.47543 8.10536 4.2879 8.2929C4.10036 8.48043 3.995 8.73479 3.995 9C3.995 9.26522 4.10036 9.51957 4.2879 9.70711C4.47543 9.89465 4.72979 10 4.995 10H8V13.005C8 13.2702 8.10536 13.5246 8.2929 13.7121C8.48043 13.8996 8.73479 14.005 9 14.005C9.26522 14.005 9.51957 13.8996 9.70711 13.7121C9.89465 13.5246 10 13.2702 10 13.005V10H13.005C13.2702 10 13.5246 9.89465 13.7121 9.70711C13.8996 9.51957 14.005 9.26522 14.005 9C14.005 8.73479 13.8996 8.48043 13.7121 8.2929C13.5246 8.10536 13.2702 8 13.005 8H10V4.995C10 4.72979 9.89465 4.47543 9.70711 4.2879C9.51957 4.10036 9.26522 3.995 9 3.995C8.73479 3.995 8.48043 4.10036 8.2929 4.2879C8.10536 4.47543 8 4.72979 8 4.995V8H4.995Z" fill="#DCE1EA"/>
</svg>
