<svg width="13" height="12" viewBox="0 0 13 12" fill="none" xmlns="http://www.w3.org/2000/svg">
<path d="M11.4648 12C11.3584 12.0006 11.2529 11.9802 11.1545 11.9398C11.0561 11.8994 10.9666 11.8398 10.8913 11.7646L8.99089 9.86506C7.89878 10.7366 6.51756 11.163 5.12422 11.0588C3.73088 10.9546 2.42844 10.3275 1.47809 9.30328C0.527738 8.27903 -0.00025201 6.93335 9.02361e-08 5.53612C0.00025219 4.13889 0.528728 2.79341 1.47945 1.7695C2.43017 0.745592 3.73283 0.118963 5.12621 0.0152768C6.51959 -0.0884095 7.90066 0.338514 8.99245 1.21043C10.0842 2.08235 10.806 3.33479 11.0131 4.7166C11.2201 6.09841 10.8971 7.5074 10.1088 8.66103L12.0514 10.6036C12.1272 10.6787 12.1872 10.768 12.2281 10.8665C12.2689 10.9649 12.2898 11.0705 12.2894 11.1771C12.2887 11.3954 12.2016 11.6046 12.047 11.7588C11.8925 11.913 11.6831 11.9998 11.4648 12ZM5.53426 1.43337C4.72218 1.43236 3.92807 1.67235 3.25248 2.12296C2.57689 2.57357 2.05021 3.21453 1.73913 3.96466C1.42806 4.7148 1.34658 5.54037 1.50501 6.33685C1.66345 7.13332 2.05467 7.86486 2.62914 8.43885C3.10646 8.91576 3.69404 9.2676 4.33982 9.46319C4.98559 9.65879 5.66965 9.6921 6.33137 9.56017C6.9931 9.42825 7.61208 9.13516 8.13348 8.70687C8.65488 8.27858 9.0626 7.72832 9.32054 7.10481C9.57848 6.48131 9.67866 5.80382 9.61222 5.13235C9.54578 4.46088 9.31476 3.81615 8.93963 3.25529C8.56451 2.69443 8.05684 2.23474 7.46162 1.91694C6.86639 1.59914 6.20198 1.43305 5.52723 1.43337H5.53426Z" fill="#A6B1C2"/>
</svg>
