<svg width="9" height="8" viewBox="0 0 9 8" fill="none" xmlns="http://www.w3.org/2000/svg">
<path d="M5.08429 4.0096L7.76797 1.32592C7.84419 1.2567 7.90556 1.17273 7.94834 1.07908C7.99113 0.985431 8.01444 0.884067 8.01686 0.781138C8.01929 0.678209 8.00077 0.57586 7.96245 0.480302C7.92412 0.384745 7.86677 0.297971 7.79389 0.225246C7.72101 0.152521 7.63412 0.0953619 7.53848 0.0572366C7.44284 0.0191113 7.34045 0.000814975 7.23753 0.00345786C7.13461 0.00610075 7.03329 0.0296277 6.93974 0.0726112C6.84618 0.115595 6.76233 0.177138 6.69328 0.253508L4.0096 2.93491L1.32668 0.253508C1.25777 0.176426 1.17387 0.114214 1.08009 0.0706755C0.986317 0.0271375 0.884645 0.00318981 0.781297 0.000297485C0.677948 -0.00259484 0.575096 0.015629 0.479033 0.0538542C0.38297 0.0920793 0.295716 0.149502 0.222609 0.222609C0.149502 0.295716 0.0920793 0.38297 0.0538542 0.479033C0.015629 0.575096 -0.00259484 0.677948 0.000297485 0.781297C0.00318981 0.884645 0.0271375 0.986317 0.0706755 1.08009C0.114214 1.17387 0.176426 1.25777 0.253508 1.32668L2.93491 4.0096L0.253508 6.69328C0.180917 6.76339 0.123015 6.84726 0.0831828 6.93998C0.0433501 7.03271 0.0223836 7.13244 0.0215067 7.23336C0.0206298 7.33428 0.0398599 7.43436 0.0780752 7.52776C0.11629 7.62117 0.172725 7.70603 0.244087 7.77739C0.315449 7.84875 0.400308 7.90519 0.493714 7.9434C0.587119 7.98162 0.6872 8.00085 0.788117 7.99997C0.889034 7.99909 0.988765 7.97813 1.08149 7.93829C1.17422 7.89846 1.25809 7.84056 1.3282 7.76797L4.0096 5.08429L6.69328 7.76797C6.76339 7.84056 6.84726 7.89846 6.93998 7.93829C7.03271 7.97813 7.13244 7.99909 7.23336 7.99997C7.33428 8.00085 7.43436 7.98162 7.52776 7.9434C7.62117 7.90519 7.70603 7.84875 7.77739 7.77739C7.84875 7.70603 7.90519 7.62117 7.9434 7.52776C7.98162 7.43436 8.00085 7.33428 7.99997 7.23336C7.99909 7.13244 7.97813 7.03271 7.93829 6.93998C7.89846 6.84726 7.84056 6.76339 7.76797 6.69328L5.08429 4.0096Z" fill="white"/>
</svg>
