<svg width="14" height="18" viewBox="0 0 14 18" fill="none" xmlns="http://www.w3.org/2000/svg">
<path d="M10.9995 18H2.99952C2.46909 18 1.96038 17.7893 1.58531 17.4142C1.21023 17.0391 0.999521 16.5304 0.999521 16V4H12.9995V16C12.9995 16.5304 12.7888 17.0391 12.4137 17.4142C12.0387 17.7893 11.53 18 10.9995 18ZM10.2495 6C10.0505 6.00027 9.85975 6.0795 9.71913 6.22032C9.57851 6.36113 9.49952 6.552 9.49952 6.751V15.251C9.49952 15.4499 9.57854 15.6407 9.71919 15.7813C9.85984 15.922 10.0506 16.001 10.2495 16.001C10.4484 16.001 10.6392 15.922 10.7799 15.7813C10.9205 15.6407 10.9995 15.4499 10.9995 15.251V6.751C10.9995 6.552 10.9205 6.36113 10.7799 6.22032C10.6393 6.0795 10.4485 6.00027 10.2495 6ZM6.99952 6C6.80043 6.00026 6.60956 6.07947 6.46878 6.22025C6.32799 6.36104 6.24879 6.5519 6.24852 6.751V15.251C6.24852 15.4499 6.32754 15.6407 6.46819 15.7813C6.60884 15.922 6.79961 16.001 6.99852 16.001C7.19743 16.001 7.3882 15.922 7.52885 15.7813C7.6695 15.6407 7.74852 15.4499 7.74852 15.251V6.751C7.74852 6.55217 7.66967 6.36145 7.52927 6.22067C7.38886 6.07989 7.19835 6.00053 6.99952 6ZM3.74952 6C3.55043 6.00053 3.35966 6.07999 3.21907 6.22096C3.07847 6.36193 2.99952 6.5529 2.99952 6.752V15.252C2.99952 15.4509 3.07854 15.6417 3.21919 15.7823C3.35984 15.923 3.55061 16.002 3.74952 16.002C3.94843 16.002 4.1392 15.923 4.27985 15.7823C4.4205 15.6417 4.49952 15.4509 4.49952 15.252V6.752C4.49965 6.65338 4.48036 6.55569 4.44274 6.46453C4.40512 6.37336 4.34991 6.2905 4.28027 6.22067C4.21062 6.15084 4.12791 6.09541 4.03684 6.05755C3.94578 6.01969 3.84814 6.00013 3.74952 6ZM12.9925 3H1.00652C0.741305 3.00172 0.486266 2.89802 0.297511 2.7117C0.108755 2.52539 0.00174506 2.27172 2.1154e-05 2.0065C-0.00170275 1.74128 0.102001 1.48624 0.288318 1.29749C0.474636 1.10873 0.728305 1.00172 0.993521 1H3.49952L4.49952 0H9.49952L10.4995 1H13.0065C13.1378 1.00092 13.2677 1.0277 13.3887 1.0788C13.5096 1.1299 13.6194 1.20433 13.7116 1.29784C13.8038 1.39135 13.8767 1.50211 13.9261 1.62378C13.9755 1.74546 14.0004 1.87568 13.9995 2.007C13.9986 2.13832 13.9718 2.26818 13.9207 2.38915C13.8696 2.51012 13.7952 2.61985 13.7017 2.71206C13.6082 2.80427 13.4974 2.87715 13.3757 2.92656C13.2541 2.97596 13.1238 3.00092 12.9925 3Z" fill="#DCE1EA"/>
</svg>
