<svg width="19" height="17" viewBox="0 0 19 17" fill="none" xmlns="http://www.w3.org/2000/svg">
<path d="M17.0281 16.307H1.24214C1.02605 16.33 0.80773 16.2952 0.609524 16.2062C0.411318 16.1171 0.240352 15.9769 0.114135 15.8C0.022546 15.6031 -0.0149831 15.3854 0.00540324 15.1693C0.0257896 14.9531 0.103356 14.7463 0.230135 14.57L8.14114 0.722C8.22736 0.523937 8.365 0.352545 8.53978 0.225594C8.71456 0.0986419 8.92011 0.0207521 9.13513 0C9.35033 0.0205811 9.5561 0.098392 9.73106 0.225354C9.90603 0.352315 10.0438 0.523799 10.1301 0.722L18.0421 14.567C18.169 14.7438 18.2465 14.9513 18.2666 15.168C18.2866 15.3848 18.2485 15.6029 18.1561 15.8C18.03 15.977 17.859 16.1172 17.6608 16.2063C17.4626 16.2954 17.2442 16.3301 17.0281 16.307ZM9.12613 7.248C8.99019 7.2377 8.85365 7.25755 8.72626 7.30613C8.59887 7.35471 8.48378 7.43082 8.38921 7.52902C8.29464 7.62722 8.22292 7.74509 8.17917 7.87422C8.13542 8.00334 8.12073 8.14054 8.13614 8.276V13.2C8.12721 13.3412 8.14698 13.4828 8.19424 13.6161C8.24151 13.7495 8.31529 13.8719 8.41113 13.976C8.50604 14.0668 8.61825 14.1376 8.74108 14.1842C8.86392 14.2307 8.99487 14.2521 9.12613 14.247C9.39298 14.2558 9.65285 14.1608 9.85113 13.982C9.9511 13.8791 10.0282 13.7563 10.0773 13.6215C10.1264 13.4867 10.1465 13.3431 10.1361 13.2V8.225C10.1433 8.09184 10.1216 7.9587 10.0724 7.83475C10.0232 7.7108 9.94769 7.59899 9.85113 7.507C9.65129 7.33146 9.39197 7.23882 9.12613 7.248ZM9.14814 4.248C8.88615 4.24581 8.63322 4.34383 8.44113 4.522C8.34343 4.61 8.266 4.71817 8.2142 4.83903C8.1624 4.95989 8.13747 5.09056 8.14114 5.222C8.13389 5.35757 8.15707 5.49304 8.20898 5.61849C8.26089 5.74394 8.34021 5.85619 8.44113 5.947C8.63941 6.11748 8.89371 6.20866 9.15514 6.203C9.413 6.20823 9.66321 6.11529 9.85513 5.943C9.95391 5.8517 10.0314 5.73978 10.082 5.61516C10.1327 5.49055 10.1552 5.35632 10.1481 5.222C10.1567 5.08628 10.1341 4.9504 10.0821 4.82474C10.0301 4.69909 9.9501 4.58698 9.84813 4.497C9.6525 4.33156 9.4033 4.24304 9.14713 4.248H9.14814Z" fill="#F46363"/>
</svg>
