<svg width="18" height="18" viewBox="0 0 18 18" fill="none" xmlns="http://www.w3.org/2000/svg">
<path d="M9 18C7.21997 18 5.47991 17.4722 3.99987 16.4832C2.51983 15.4943 1.36628 14.0887 0.685088 12.4442C0.00389957 10.7996 -0.17433 8.99002 0.172937 7.24419C0.520203 5.49836 1.37737 3.89472 2.63604 2.63604C3.89472 1.37737 5.49836 0.520203 7.24419 0.172937C8.99002 -0.17433 10.7996 0.00389957 12.4442 0.685088C14.0887 1.36628 15.4943 2.51983 16.4832 3.99987C17.4722 5.47991 18 7.21997 18 9C17.9974 11.3861 17.0483 13.6738 15.361 15.361C13.6738 17.0483 11.3861 17.9974 9 18ZM4 8C3.73479 8 3.48043 8.10536 3.2929 8.2929C3.10536 8.48043 3 8.73479 3 9C3 9.26522 3.10536 9.51957 3.2929 9.70711C3.48043 9.89465 3.73479 10 4 10H14C14.2652 10 14.5196 9.89465 14.7071 9.70711C14.8946 9.51957 15 9.26522 15 9C15 8.73479 14.8946 8.48043 14.7071 8.2929C14.5196 8.10536 14.2652 8 14 8H4Z" fill="#F46363"/>
</svg>
