<svg width="14" height="12" viewBox="0 0 14 12" fill="none" xmlns="http://www.w3.org/2000/svg">
<path fill-rule="evenodd" clip-rule="evenodd" d="M7.74463 0.637695L13.4043 10.3999C13.5063 10.561 13.5649 10.752 13.5649 10.9565C13.5649 11.533 13.0977 12 12.5215 12C12.4971 12 12.4712 12.0017 12.4468 12H1.11865C1.09424 12.0017 1.06836 12 1.04346 12C0.467285 12 0 11.533 0 10.9565C0 10.7483 0.0610352 10.5544 0.166016 10.3916L5.8208 0.637695C5.979 0.262939 6.3501 0 6.78271 0C7.21533 0 7.58643 0.262939 7.74463 0.637695ZM7.31104 7.73901L7.41504 4.36182H6.15039L6.25488 7.73901H7.31104ZM6.09424 9.39502C6.09424 9.78149 6.35254 10.0117 6.78418 10.0117C7.21338 10.0117 7.47119 9.78149 7.47119 9.39502C7.47119 9.00098 7.21338 8.771 6.78418 8.771C6.35205 8.771 6.09424 9.00098 6.09424 9.39502Z" fill="white"/>
</svg>
